<?xml version="1.0" encoding="UTF-8" standalone="no"?>
<!DOCTYPE svg PUBLIC "-//W3C//DTD SVG 1.1//EN" "http://www.w3.org/Graphics/SVG/1.1/DTD/svg11.dtd">
<svg width="100%" height="100%" viewBox="0 0 2194 2370" version="1.1" xmlns="http://www.w3.org/2000/svg" xmlns:xlink="http://www.w3.org/1999/xlink" xml:space="preserve" xmlns:serif="http://www.serif.com/" style="fill-rule:evenodd;clip-rule:evenodd;stroke-linejoin:round;stroke-miterlimit:2;">
    <g transform="matrix(5.31976,0,0,5.31789,-1442.15,-481.673)">
        <path d="M400.975,456.229C397.139,456.229 393.386,457.352 390.179,459.458C370.381,472.459 296.464,521.003 273.678,535.968C273.016,536.402 272.141,536.312 271.582,535.753C271.023,535.194 270.933,534.318 271.367,533.657C286.332,510.871 334.876,436.954 347.877,417.156C349.983,413.949 351.106,410.196 351.106,406.36L351.106,129.902C351.106,108.183 368.713,90.576 390.432,90.576L500.172,90.576C628.462,90.576 683.518,176.795 683.518,273.403C683.518,370.01 625.346,456.229 500.172,456.229L400.975,456.229ZM501.73,381.437C565.096,381.437 596.26,328.458 596.26,273.403C596.26,218.347 565.096,165.369 501.73,165.369L438.364,165.369L438.364,342.091C438.364,363.821 455.979,381.437 477.709,381.437L501.73,381.437Z" style="fill:rgb(26,50,229);"/>
    </g>
</svg>
